<svg xmlns="http://www.w3.org/2000/svg" viewBox="0 0 1060 520" width="1060" height="520" font-family="sans-serif">
<rect width="1060" height="520" fill="#ffffff"/>
<rect x="70" y="46" width="297" height="410" fill="#eef2f7"/>
<line x1="70" y1="46" x2="70" y2="456" stroke="#c7d2de" stroke-width="1"/>
<text x="218" y="34" font-size="12" fill="#44546a" text-anchor="middle">Lean 4.34.0</text>
<rect x="367" y="46" width="383" height="410" fill="#f8fafc"/>
<line x1="367" y1="46" x2="367" y2="456" stroke="#c7d2de" stroke-width="1"/>
<text x="558" y="34" font-size="12" fill="#44546a" text-anchor="middle">Lean 4.34.1</text>
<line x1="70" y1="46" x2="70" y2="456" stroke="#8a6d3b" stroke-width="1" stroke-dasharray="4 3"/>
<text x="74" y="60" font-size="10" fill="#8a6d3b" text-anchor="start">novacula v0.0.0</text>
<line x1="647" y1="46" x2="647" y2="456" stroke="#8a6d3b" stroke-width="1" stroke-dasharray="4 3"/>
<text x="643" y="60" font-size="10" fill="#8a6d3b" text-anchor="end">novacula v0.3.0</text>
<line x1="70" y1="456" x2="750" y2="456" stroke="#333" stroke-width="1"/>
<line x1="70" y1="46" x2="70" y2="456" stroke="#333" stroke-width="1"/>
<text x="60" y="50" font-size="11" fill="#333" text-anchor="end">207</text>
<text x="60" y="456" font-size="11" fill="#333" text-anchor="end">0</text>
<text x="20" y="251" font-size="12" fill="#333" transform="rotate(-90 20 251)" text-anchor="middle">size</text>
<text x="70" y="474" font-size="10" fill="#333" text-anchor="middle" transform="rotate(-35 70 474)">2026-09-16</text>
<text x="140" y="474" font-size="10" fill="#333" text-anchor="middle" transform="rotate(-35 140 474)">2026-09-18</text>
<text x="210" y="474" font-size="10" fill="#333" text-anchor="middle" transform="rotate(-35 210 474)">2026-09-20</text>
<text x="280" y="474" font-size="10" fill="#333" text-anchor="middle" transform="rotate(-35 280 474)">2026-09-22</text>
<text x="350" y="474" font-size="10" fill="#333" text-anchor="middle" transform="rotate(-35 350 474)">2026-09-24</text>
<text x="420" y="474" font-size="10" fill="#333" text-anchor="middle" transform="rotate(-35 420 474)">2026-09-26</text>
<text x="490" y="474" font-size="10" fill="#333" text-anchor="middle" transform="rotate(-35 490 474)">2026-09-28</text>
<text x="560" y="474" font-size="10" fill="#333" text-anchor="middle" transform="rotate(-35 560 474)">2026-09-30</text>
<text x="630" y="474" font-size="10" fill="#333" text-anchor="middle" transform="rotate(-35 630 474)">2026-10-02</text>
<text x="700" y="474" font-size="10" fill="#333" text-anchor="middle" transform="rotate(-35 700 474)">2026-10-04</text>
<polyline fill="none" stroke="#1f77b4" stroke-width="2" points="70,389 105,389 140,389 175,389 210,389 245,389 280,389 315,389 350,389 385,389 420,389 455,389 490,389 525,389 560,389 595,389 630,389 665,389 700,389 735,389"/>
<circle cx="70" cy="389" r="3" fill="#1f77b4"/>
<circle cx="105" cy="389" r="3" fill="#1f77b4"/>
<circle cx="140" cy="389" r="3" fill="#1f77b4"/>
<circle cx="175" cy="389" r="3" fill="#1f77b4"/>
<circle cx="210" cy="389" r="3" fill="#1f77b4"/>
<circle cx="245" cy="389" r="3" fill="#1f77b4"/>
<circle cx="280" cy="389" r="3" fill="#1f77b4"/>
<circle cx="315" cy="389" r="3" fill="#1f77b4"/>
<circle cx="350" cy="389" r="3" fill="#1f77b4"/>
<circle cx="385" cy="389" r="3" fill="#1f77b4"/>
<circle cx="420" cy="389" r="3" fill="#1f77b4"/>
<circle cx="455" cy="389" r="3" fill="#1f77b4"/>
<circle cx="490" cy="389" r="3" fill="#1f77b4"/>
<circle cx="525" cy="389" r="3" fill="#1f77b4"/>
<circle cx="560" cy="389" r="3" fill="#1f77b4"/>
<circle cx="595" cy="389" r="3" fill="#1f77b4"/>
<circle cx="630" cy="389" r="3" fill="#1f77b4"/>
<circle cx="665" cy="389" r="3" fill="#1f77b4"/>
<circle cx="700" cy="389" r="3" fill="#1f77b4"/>
<circle cx="735" cy="389" r="3" fill="#1f77b4"/>
<text x="764" y="60" font-size="11" fill="#1f77b4">Nat.add_comm</text>
<polyline fill="none" stroke="#d62728" stroke-width="2" points="70,298 105,298 140,298 175,298 210,298 245,298 280,298 315,298 350,298 385,298 420,298 455,298 490,298 525,298 560,298 595,298 630,298 665,298 700,298 735,298"/>
<circle cx="70" cy="298" r="3" fill="#d62728"/>
<circle cx="105" cy="298" r="3" fill="#d62728"/>
<circle cx="140" cy="298" r="3" fill="#d62728"/>
<circle cx="175" cy="298" r="3" fill="#d62728"/>
<circle cx="210" cy="298" r="3" fill="#d62728"/>
<circle cx="245" cy="298" r="3" fill="#d62728"/>
<circle cx="280" cy="298" r="3" fill="#d62728"/>
<circle cx="315" cy="298" r="3" fill="#d62728"/>
<circle cx="350" cy="298" r="3" fill="#d62728"/>
<circle cx="385" cy="298" r="3" fill="#d62728"/>
<circle cx="420" cy="298" r="3" fill="#d62728"/>
<circle cx="455" cy="298" r="3" fill="#d62728"/>
<circle cx="490" cy="298" r="3" fill="#d62728"/>
<circle cx="525" cy="298" r="3" fill="#d62728"/>
<circle cx="560" cy="298" r="3" fill="#d62728"/>
<circle cx="595" cy="298" r="3" fill="#d62728"/>
<circle cx="630" cy="298" r="3" fill="#d62728"/>
<circle cx="665" cy="298" r="3" fill="#d62728"/>
<circle cx="700" cy="298" r="3" fill="#d62728"/>
<circle cx="735" cy="298" r="3" fill="#d62728"/>
<text x="764" y="78" font-size="11" fill="#d62728">Nat.le_antisymm</text>
<polyline fill="none" stroke="#2ca02c" stroke-width="2" points="70,342 105,342 140,342 175,342 210,342 245,342 280,342 315,342 350,342 385,342 420,342 455,342 490,342 525,342 560,342 595,342 630,342 665,342 700,342 735,342"/>
<circle cx="70" cy="342" r="3" fill="#2ca02c"/>
<circle cx="105" cy="342" r="3" fill="#2ca02c"/>
<circle cx="140" cy="342" r="3" fill="#2ca02c"/>
<circle cx="175" cy="342" r="3" fill="#2ca02c"/>
<circle cx="210" cy="342" r="3" fill="#2ca02c"/>
<circle cx="245" cy="342" r="3" fill="#2ca02c"/>
<circle cx="280" cy="342" r="3" fill="#2ca02c"/>
<circle cx="315" cy="342" r="3" fill="#2ca02c"/>
<circle cx="350" cy="342" r="3" fill="#2ca02c"/>
<circle cx="385" cy="342" r="3" fill="#2ca02c"/>
<circle cx="420" cy="342" r="3" fill="#2ca02c"/>
<circle cx="455" cy="342" r="3" fill="#2ca02c"/>
<circle cx="490" cy="342" r="3" fill="#2ca02c"/>
<circle cx="525" cy="342" r="3" fill="#2ca02c"/>
<circle cx="560" cy="342" r="3" fill="#2ca02c"/>
<circle cx="595" cy="342" r="3" fill="#2ca02c"/>
<circle cx="630" cy="342" r="3" fill="#2ca02c"/>
<circle cx="665" cy="342" r="3" fill="#2ca02c"/>
<circle cx="700" cy="342" r="3" fill="#2ca02c"/>
<circle cx="735" cy="342" r="3" fill="#2ca02c"/>
<text x="764" y="96" font-size="11" fill="#2ca02c">Nat.div_add_mod</text>
<polyline fill="none" stroke="#9467bd" stroke-width="2" points="70,377 105,377 140,377 175,377 210,377 245,377 280,377 315,377 350,377 385,377 420,377 455,377 490,377 525,377 560,377 595,377 630,377 665,377 700,377 735,377"/>
<circle cx="70" cy="377" r="3" fill="#9467bd"/>
<circle cx="105" cy="377" r="3" fill="#9467bd"/>
<circle cx="140" cy="377" r="3" fill="#9467bd"/>
<circle cx="175" cy="377" r="3" fill="#9467bd"/>
<circle cx="210" cy="377" r="3" fill="#9467bd"/>
<circle cx="245" cy="377" r="3" fill="#9467bd"/>
<circle cx="280" cy="377" r="3" fill="#9467bd"/>
<circle cx="315" cy="377" r="3" fill="#9467bd"/>
<circle cx="350" cy="377" r="3" fill="#9467bd"/>
<circle cx="385" cy="377" r="3" fill="#9467bd"/>
<circle cx="420" cy="377" r="3" fill="#9467bd"/>
<circle cx="455" cy="377" r="3" fill="#9467bd"/>
<circle cx="490" cy="377" r="3" fill="#9467bd"/>
<circle cx="525" cy="377" r="3" fill="#9467bd"/>
<circle cx="560" cy="377" r="3" fill="#9467bd"/>
<circle cx="595" cy="377" r="3" fill="#9467bd"/>
<circle cx="630" cy="377" r="3" fill="#9467bd"/>
<circle cx="665" cy="377" r="3" fill="#9467bd"/>
<circle cx="700" cy="377" r="3" fill="#9467bd"/>
<circle cx="735" cy="377" r="3" fill="#9467bd"/>
<text x="764" y="114" font-size="11" fill="#9467bd">Nat.sub_one_lt</text>
<polyline fill="none" stroke="#ff7f0e" stroke-width="2" points="70,46 105,46 140,46 175,46 210,46 245,46 280,46 315,46 350,46 385,46 420,46 455,46 490,46 525,46 560,46 595,46 630,46 665,46 700,46 735,46"/>
<circle cx="70" cy="46" r="3" fill="#ff7f0e"/>
<circle cx="105" cy="46" r="3" fill="#ff7f0e"/>
<circle cx="140" cy="46" r="3" fill="#ff7f0e"/>
<circle cx="175" cy="46" r="3" fill="#ff7f0e"/>
<circle cx="210" cy="46" r="3" fill="#ff7f0e"/>
<circle cx="245" cy="46" r="3" fill="#ff7f0e"/>
<circle cx="280" cy="46" r="3" fill="#ff7f0e"/>
<circle cx="315" cy="46" r="3" fill="#ff7f0e"/>
<circle cx="350" cy="46" r="3" fill="#ff7f0e"/>
<circle cx="385" cy="46" r="3" fill="#ff7f0e"/>
<circle cx="420" cy="46" r="3" fill="#ff7f0e"/>
<circle cx="455" cy="46" r="3" fill="#ff7f0e"/>
<circle cx="490" cy="46" r="3" fill="#ff7f0e"/>
<circle cx="525" cy="46" r="3" fill="#ff7f0e"/>
<circle cx="560" cy="46" r="3" fill="#ff7f0e"/>
<circle cx="595" cy="46" r="3" fill="#ff7f0e"/>
<circle cx="630" cy="46" r="3" fill="#ff7f0e"/>
<circle cx="665" cy="46" r="3" fill="#ff7f0e"/>
<circle cx="700" cy="46" r="3" fill="#ff7f0e"/>
<circle cx="735" cy="46" r="3" fill="#ff7f0e"/>
<text x="764" y="132" font-size="11" fill="#ff7f0e">List.length_append</text>
<polyline fill="none" stroke="#17becf" stroke-width="2" points="70,324 105,324 140,324 175,324 210,324 245,324 280,324 315,324 350,324 385,324 420,324 455,324 490,324 525,324 560,324 595,324 630,324 665,324 700,324 735,324"/>
<circle cx="70" cy="324" r="3" fill="#17becf"/>
<circle cx="105" cy="324" r="3" fill="#17becf"/>
<circle cx="140" cy="324" r="3" fill="#17becf"/>
<circle cx="175" cy="324" r="3" fill="#17becf"/>
<circle cx="210" cy="324" r="3" fill="#17becf"/>
<circle cx="245" cy="324" r="3" fill="#17becf"/>
<circle cx="280" cy="324" r="3" fill="#17becf"/>
<circle cx="315" cy="324" r="3" fill="#17becf"/>
<circle cx="350" cy="324" r="3" fill="#17becf"/>
<circle cx="385" cy="324" r="3" fill="#17becf"/>
<circle cx="420" cy="324" r="3" fill="#17becf"/>
<circle cx="455" cy="324" r="3" fill="#17becf"/>
<circle cx="490" cy="324" r="3" fill="#17becf"/>
<circle cx="525" cy="324" r="3" fill="#17becf"/>
<circle cx="560" cy="324" r="3" fill="#17becf"/>
<circle cx="595" cy="324" r="3" fill="#17becf"/>
<circle cx="630" cy="324" r="3" fill="#17becf"/>
<circle cx="665" cy="324" r="3" fill="#17becf"/>
<circle cx="700" cy="324" r="3" fill="#17becf"/>
<circle cx="735" cy="324" r="3" fill="#17becf"/>
<text x="764" y="150" font-size="11" fill="#17becf">List.reverse_reverse</text>
<polyline fill="none" stroke="#8c564b" stroke-width="2" points="70,357 105,357 140,357 175,357 210,357 245,357 280,357 315,357 350,357 385,357 420,357 455,357 490,357 525,357 560,357 595,357 630,357 665,357 700,357 735,357"/>
<circle cx="70" cy="357" r="3" fill="#8c564b"/>
<circle cx="105" cy="357" r="3" fill="#8c564b"/>
<circle cx="140" cy="357" r="3" fill="#8c564b"/>
<circle cx="175" cy="357" r="3" fill="#8c564b"/>
<circle cx="210" cy="357" r="3" fill="#8c564b"/>
<circle cx="245" cy="357" r="3" fill="#8c564b"/>
<circle cx="280" cy="357" r="3" fill="#8c564b"/>
<circle cx="315" cy="357" r="3" fill="#8c564b"/>
<circle cx="350" cy="357" r="3" fill="#8c564b"/>
<circle cx="385" cy="357" r="3" fill="#8c564b"/>
<circle cx="420" cy="357" r="3" fill="#8c564b"/>
<circle cx="455" cy="357" r="3" fill="#8c564b"/>
<circle cx="490" cy="357" r="3" fill="#8c564b"/>
<circle cx="525" cy="357" r="3" fill="#8c564b"/>
<circle cx="560" cy="357" r="3" fill="#8c564b"/>
<circle cx="595" cy="357" r="3" fill="#8c564b"/>
<circle cx="630" cy="357" r="3" fill="#8c564b"/>
<circle cx="665" cy="357" r="3" fill="#8c564b"/>
<circle cx="700" cy="357" r="3" fill="#8c564b"/>
<circle cx="735" cy="357" r="3" fill="#8c564b"/>
<text x="764" y="168" font-size="11" fill="#8c564b">Array.size_push</text>
<polyline fill="none" stroke="#e377c2" stroke-width="2" points="70,375 105,375 140,375 175,375 210,375 245,375 280,375 315,375 350,375 385,375 420,375 455,375 490,375 525,375 560,375 595,375 630,375 665,375 700,375 735,375"/>
<circle cx="70" cy="375" r="3" fill="#e377c2"/>
<circle cx="105" cy="375" r="3" fill="#e377c2"/>
<circle cx="140" cy="375" r="3" fill="#e377c2"/>
<circle cx="175" cy="375" r="3" fill="#e377c2"/>
<circle cx="210" cy="375" r="3" fill="#e377c2"/>
<circle cx="245" cy="375" r="3" fill="#e377c2"/>
<circle cx="280" cy="375" r="3" fill="#e377c2"/>
<circle cx="315" cy="375" r="3" fill="#e377c2"/>
<circle cx="350" cy="375" r="3" fill="#e377c2"/>
<circle cx="385" cy="375" r="3" fill="#e377c2"/>
<circle cx="420" cy="375" r="3" fill="#e377c2"/>
<circle cx="455" cy="375" r="3" fill="#e377c2"/>
<circle cx="490" cy="375" r="3" fill="#e377c2"/>
<circle cx="525" cy="375" r="3" fill="#e377c2"/>
<circle cx="560" cy="375" r="3" fill="#e377c2"/>
<circle cx="595" cy="375" r="3" fill="#e377c2"/>
<circle cx="630" cy="375" r="3" fill="#e377c2"/>
<circle cx="665" cy="375" r="3" fill="#e377c2"/>
<circle cx="700" cy="375" r="3" fill="#e377c2"/>
<circle cx="735" cy="375" r="3" fill="#e377c2"/>
<text x="764" y="186" font-size="11" fill="#e377c2">Nat.strongRecOn</text>
<polyline fill="none" stroke="#7f7f7f" stroke-width="2" points="70,403 105,403 140,403 175,403 210,403 245,403 280,403 315,403 350,403 385,403 420,403 455,403 490,403 525,403 560,403 595,403 630,403 665,403 700,403 735,403"/>
<circle cx="70" cy="403" r="3" fill="#7f7f7f"/>
<circle cx="105" cy="403" r="3" fill="#7f7f7f"/>
<circle cx="140" cy="403" r="3" fill="#7f7f7f"/>
<circle cx="175" cy="403" r="3" fill="#7f7f7f"/>
<circle cx="210" cy="403" r="3" fill="#7f7f7f"/>
<circle cx="245" cy="403" r="3" fill="#7f7f7f"/>
<circle cx="280" cy="403" r="3" fill="#7f7f7f"/>
<circle cx="315" cy="403" r="3" fill="#7f7f7f"/>
<circle cx="350" cy="403" r="3" fill="#7f7f7f"/>
<circle cx="385" cy="403" r="3" fill="#7f7f7f"/>
<circle cx="420" cy="403" r="3" fill="#7f7f7f"/>
<circle cx="455" cy="403" r="3" fill="#7f7f7f"/>
<circle cx="490" cy="403" r="3" fill="#7f7f7f"/>
<circle cx="525" cy="403" r="3" fill="#7f7f7f"/>
<circle cx="560" cy="403" r="3" fill="#7f7f7f"/>
<circle cx="595" cy="403" r="3" fill="#7f7f7f"/>
<circle cx="630" cy="403" r="3" fill="#7f7f7f"/>
<circle cx="665" cy="403" r="3" fill="#7f7f7f"/>
<circle cx="700" cy="403" r="3" fill="#7f7f7f"/>
<circle cx="735" cy="403" r="3" fill="#7f7f7f"/>
<text x="764" y="204" font-size="11" fill="#7f7f7f">Fixtures.addComm</text>
<polyline fill="none" stroke="#bcbd22" stroke-width="2" points="70,249 105,249 140,249 175,249 210,249 245,249 280,249 315,249 350,249 385,249 420,249 455,249 490,249 525,249 560,249 595,249 630,249 665,249 700,249 735,249"/>
<circle cx="70" cy="249" r="3" fill="#bcbd22"/>
<circle cx="105" cy="249" r="3" fill="#bcbd22"/>
<circle cx="140" cy="249" r="3" fill="#bcbd22"/>
<circle cx="175" cy="249" r="3" fill="#bcbd22"/>
<circle cx="210" cy="249" r="3" fill="#bcbd22"/>
<circle cx="245" cy="249" r="3" fill="#bcbd22"/>
<circle cx="280" cy="249" r="3" fill="#bcbd22"/>
<circle cx="315" cy="249" r="3" fill="#bcbd22"/>
<circle cx="350" cy="249" r="3" fill="#bcbd22"/>
<circle cx="385" cy="249" r="3" fill="#bcbd22"/>
<circle cx="420" cy="249" r="3" fill="#bcbd22"/>
<circle cx="455" cy="249" r="3" fill="#bcbd22"/>
<circle cx="490" cy="249" r="3" fill="#bcbd22"/>
<circle cx="525" cy="249" r="3" fill="#bcbd22"/>
<circle cx="560" cy="249" r="3" fill="#bcbd22"/>
<circle cx="595" cy="249" r="3" fill="#bcbd22"/>
<circle cx="630" cy="249" r="3" fill="#bcbd22"/>
<circle cx="665" cy="249" r="3" fill="#bcbd22"/>
<circle cx="700" cy="249" r="3" fill="#bcbd22"/>
<circle cx="735" cy="249" r="3" fill="#bcbd22"/>
<text x="764" y="222" font-size="11" fill="#bcbd22">Fixtures.branchy</text>
<polyline fill="none" stroke="#1f77b4" stroke-width="2" points="70,318 105,318 140,318 175,318 210,318 245,318 280,318 315,318 350,318 385,318 420,318 455,318 490,318 525,318 560,318 595,318 630,318 665,318 700,318 735,318"/>
<circle cx="70" cy="318" r="3" fill="#1f77b4"/>
<circle cx="105" cy="318" r="3" fill="#1f77b4"/>
<circle cx="140" cy="318" r="3" fill="#1f77b4"/>
<circle cx="175" cy="318" r="3" fill="#1f77b4"/>
<circle cx="210" cy="318" r="3" fill="#1f77b4"/>
<circle cx="245" cy="318" r="3" fill="#1f77b4"/>
<circle cx="280" cy="318" r="3" fill="#1f77b4"/>
<circle cx="315" cy="318" r="3" fill="#1f77b4"/>
<circle cx="350" cy="318" r="3" fill="#1f77b4"/>
<circle cx="385" cy="318" r="3" fill="#1f77b4"/>
<circle cx="420" cy="318" r="3" fill="#1f77b4"/>
<circle cx="455" cy="318" r="3" fill="#1f77b4"/>
<circle cx="490" cy="318" r="3" fill="#1f77b4"/>
<circle cx="525" cy="318" r="3" fill="#1f77b4"/>
<circle cx="560" cy="318" r="3" fill="#1f77b4"/>
<circle cx="595" cy="318" r="3" fill="#1f77b4"/>
<circle cx="630" cy="318" r="3" fill="#1f77b4"/>
<circle cx="665" cy="318" r="3" fill="#1f77b4"/>
<circle cx="700" cy="318" r="3" fill="#1f77b4"/>
<circle cx="735" cy="318" r="3" fill="#1f77b4"/>
<text x="764" y="240" font-size="11" fill="#1f77b4">Fixtures.decBig</text>
<polyline fill="none" stroke="#d62728" stroke-width="2" points="70,344 105,344 140,344 175,344 210,344 245,344 280,344 315,344 350,344 385,344 420,344 455,344 490,344 525,344 560,344 595,344 630,344 665,344 700,344 735,344"/>
<circle cx="70" cy="344" r="3" fill="#d62728"/>
<circle cx="105" cy="344" r="3" fill="#d62728"/>
<circle cx="140" cy="344" r="3" fill="#d62728"/>
<circle cx="175" cy="344" r="3" fill="#d62728"/>
<circle cx="210" cy="344" r="3" fill="#d62728"/>
<circle cx="245" cy="344" r="3" fill="#d62728"/>
<circle cx="280" cy="344" r="3" fill="#d62728"/>
<circle cx="315" cy="344" r="3" fill="#d62728"/>
<circle cx="350" cy="344" r="3" fill="#d62728"/>
<circle cx="385" cy="344" r="3" fill="#d62728"/>
<circle cx="420" cy="344" r="3" fill="#d62728"/>
<circle cx="455" cy="344" r="3" fill="#d62728"/>
<circle cx="490" cy="344" r="3" fill="#d62728"/>
<circle cx="525" cy="344" r="3" fill="#d62728"/>
<circle cx="560" cy="344" r="3" fill="#d62728"/>
<circle cx="595" cy="344" r="3" fill="#d62728"/>
<circle cx="630" cy="344" r="3" fill="#d62728"/>
<circle cx="665" cy="344" r="3" fill="#d62728"/>
<circle cx="700" cy="344" r="3" fill="#d62728"/>
<circle cx="735" cy="344" r="3" fill="#d62728"/>
<text x="764" y="258" font-size="11" fill="#d62728">Fixtures.natively</text>
</svg>
